<svg width="578" height="94" viewBox="0 0 578 94" fill="none" xmlns="http://www.w3.org/2000/svg">
<g filter="url(#filter0_d)">
<rect x="374" y="36" width="200" height="50" rx="4" fill="#2196F3"/>
</g>
<path d="M413.419 66H411.067V56.5234H406.513V66H404.169V54.625H413.419V66ZM415.941 61.6953C415.941 60.8568 416.103 60.1094 416.426 59.4531C416.749 58.7969 417.212 58.2891 417.816 57.9297C418.426 57.5703 419.131 57.3906 419.933 57.3906C421.074 57.3906 422.004 57.7396 422.723 58.4375C423.446 59.1354 423.85 60.0833 423.933 61.2812L423.949 61.8594C423.949 63.1562 423.587 64.1979 422.863 64.9844C422.139 65.7656 421.168 66.1562 419.949 66.1562C418.73 66.1562 417.756 65.7656 417.027 64.9844C416.303 64.2031 415.941 63.1406 415.941 61.7969V61.6953ZM418.199 61.8594C418.199 62.6615 418.35 63.276 418.652 63.7031C418.954 64.125 419.387 64.3359 419.949 64.3359C420.496 64.3359 420.923 64.1276 421.23 63.7109C421.538 63.2891 421.691 62.6172 421.691 61.6953C421.691 60.9089 421.538 60.2995 421.23 59.8672C420.923 59.4349 420.491 59.2188 419.933 59.2188C419.381 59.2188 418.954 59.4349 418.652 59.8672C418.35 60.2943 418.199 60.9583 418.199 61.8594ZM425.854 64.1797C426.365 63.638 426.711 63.1016 426.893 62.5703C427.076 62.0391 427.177 61.2865 427.198 60.3125L427.261 57.5469H433.479V64.1797H434.698V68.5391H432.44V66H427.433V68.5391H425.128V64.1797H425.854ZM428.518 64.1797H431.229V59.4141H429.472L429.456 60.4297C429.409 61.9818 429.097 63.2318 428.518 64.1797ZM444.018 66H441.752V59.375H438.924V66H436.666V57.5469H444.018V66ZM451.798 57.5469H454.056V66H451.798V60.7812L448.97 66H446.704V57.5469H448.97V62.7578L451.798 57.5469ZM460.258 64.3359C460.674 64.3359 461.013 64.2214 461.273 63.9922C461.534 63.763 461.669 63.4583 461.68 63.0781H463.797C463.792 63.651 463.635 64.1771 463.328 64.6562C463.021 65.1302 462.599 65.5 462.062 65.7656C461.531 66.026 460.943 66.1562 460.297 66.1562C459.089 66.1562 458.135 65.7734 457.438 65.0078C456.74 64.237 456.391 63.1745 456.391 61.8203V61.6719C456.391 60.3698 456.737 59.3307 457.43 58.5547C458.122 57.7786 459.073 57.3906 460.281 57.3906C461.339 57.3906 462.185 57.6927 462.82 58.2969C463.461 58.8958 463.786 59.6953 463.797 60.6953H461.68C461.669 60.2578 461.534 59.9036 461.273 59.6328C461.013 59.3568 460.669 59.2188 460.242 59.2188C459.716 59.2188 459.318 59.4115 459.047 59.7969C458.781 60.1771 458.648 60.7969 458.648 61.6562V61.8906C458.648 62.7604 458.781 63.3854 459.047 63.7656C459.312 64.1458 459.716 64.3359 460.258 64.3359ZM470.944 66C470.84 65.7969 470.765 65.5443 470.718 65.2422C470.171 65.8516 469.46 66.1562 468.585 66.1562C467.757 66.1562 467.069 65.9167 466.522 65.4375C465.981 64.9583 465.71 64.3542 465.71 63.625C465.71 62.7292 466.041 62.0417 466.702 61.5625C467.369 61.0833 468.33 60.8411 469.585 60.8359H470.624V60.3516C470.624 59.9609 470.522 59.6484 470.319 59.4141C470.121 59.1797 469.806 59.0625 469.374 59.0625C468.994 59.0625 468.694 59.1536 468.476 59.3359C468.262 59.5182 468.155 59.7682 468.155 60.0859H465.897C465.897 59.5964 466.049 59.1432 466.351 58.7266C466.653 58.3099 467.08 57.9844 467.632 57.75C468.184 57.5104 468.804 57.3906 469.491 57.3906C470.533 57.3906 471.358 57.6536 471.968 58.1797C472.582 58.7005 472.89 59.4349 472.89 60.3828V64.0469C472.895 64.849 473.007 65.4557 473.226 65.8672V66H470.944ZM469.077 64.4297C469.411 64.4297 469.718 64.3568 469.999 64.2109C470.28 64.0599 470.489 63.8594 470.624 63.6094V62.1562H469.78C468.65 62.1562 468.049 62.5469 467.976 63.3281L467.968 63.4609C467.968 63.7422 468.067 63.974 468.265 64.1562C468.463 64.3385 468.733 64.4297 469.077 64.4297ZM482.475 59.3594H479.764V66H477.498V59.3594H474.834V57.5469H482.475V59.3594ZM486.989 60.0234H488.607C489.336 60.0234 489.976 60.1458 490.528 60.3906C491.081 60.6354 491.502 60.987 491.794 61.4453C492.091 61.8984 492.239 62.4271 492.239 63.0312C492.239 63.9219 491.909 64.6406 491.247 65.1875C490.591 65.7292 489.695 66 488.56 66H484.724V57.5469H486.989V60.0234ZM486.989 61.8359V64.1953H488.591C489.039 64.1953 489.383 64.0911 489.622 63.8828C489.862 63.6745 489.982 63.3906 489.982 63.0312C489.982 62.6667 489.864 62.3776 489.63 62.1641C489.396 61.9453 489.049 61.8359 488.591 61.8359H486.989ZM497.988 64.3359C498.405 64.3359 498.744 64.2214 499.004 63.9922C499.264 63.763 499.4 63.4583 499.41 63.0781H501.527C501.522 63.651 501.366 64.1771 501.059 64.6562C500.751 65.1302 500.33 65.5 499.793 65.7656C499.262 66.026 498.673 66.1562 498.027 66.1562C496.819 66.1562 495.866 65.7734 495.168 65.0078C494.47 64.237 494.121 63.1745 494.121 61.8203V61.6719C494.121 60.3698 494.468 59.3307 495.16 58.5547C495.853 57.7786 496.804 57.3906 498.012 57.3906C499.069 57.3906 499.916 57.6927 500.551 58.2969C501.192 58.8958 501.517 59.6953 501.527 60.6953H499.41C499.4 60.2578 499.264 59.9036 499.004 59.6328C498.744 59.3568 498.4 59.2188 497.973 59.2188C497.447 59.2188 497.048 59.4115 496.777 59.7969C496.512 60.1771 496.379 60.7969 496.379 61.6562V61.8906C496.379 62.7604 496.512 63.3854 496.777 63.7656C497.043 64.1458 497.447 64.3359 497.988 64.3359ZM510.823 57.5469V66H508.573V63.0781H507.144L505.519 66H503.23L505.073 62.6953C504.568 62.4609 504.178 62.1432 503.902 61.7422C503.631 61.3411 503.495 60.8854 503.495 60.375C503.495 59.5573 503.81 58.888 504.441 58.3672C505.076 57.8411 505.925 57.5677 506.988 57.5469H510.823ZM507.027 61.5H508.573V59.3594H507.105C506.704 59.3594 506.378 59.4661 506.128 59.6797C505.878 59.888 505.753 60.1432 505.753 60.4453C505.753 60.7474 505.873 60.9974 506.113 61.1953C506.352 61.3932 506.657 61.4948 507.027 61.5Z" fill="white"/>
<path d="M546 49L522 62.5L529.67 65.3407L541.5 54.25L532.502 66.3896L532.509 66.3923L532.5 66.3896V73.0001L536.801 67.982L542.25 70.0001L546 49Z" fill="white"/>
<path d="M12.9961 13H10.9385V4.70801H6.95312V13H4.90234V3.04688H12.9961V13ZM23.3966 8.24902C23.3966 9.22884 23.2234 10.0879 22.877 10.8262C22.5307 11.5645 22.0339 12.1341 21.3868 12.5352C20.7442 12.9362 20.0059 13.1367 19.172 13.1367C18.3471 13.1367 17.6111 12.9385 16.9639 12.542C16.3168 12.1455 15.8155 11.5804 15.46 10.8467C15.1046 10.1084 14.9246 9.26074 14.92 8.30371V7.81152C14.92 6.83171 15.0955 5.97038 15.4464 5.22754C15.8018 4.48014 16.3009 3.9082 16.9434 3.51172C17.5906 3.11068 18.3289 2.91016 19.1583 2.91016C19.9877 2.91016 20.7237 3.11068 21.3663 3.51172C22.0134 3.9082 22.5124 4.48014 22.8634 5.22754C23.2188 5.97038 23.3966 6.82943 23.3966 7.80469V8.24902ZM21.3184 7.79785C21.3184 6.75423 21.1316 5.96126 20.7579 5.41895C20.3842 4.87663 19.851 4.60547 19.1583 4.60547C18.4701 4.60547 17.9392 4.87435 17.5655 5.41211C17.1918 5.94531 17.0027 6.72917 16.9981 7.76367V8.24902C16.9981 9.2653 17.185 10.0537 17.5587 10.6143C17.9324 11.1748 18.4701 11.4551 19.172 11.4551C19.8601 11.4551 20.3888 11.1862 20.7579 10.6484C21.127 10.1061 21.3139 9.31771 21.3184 8.2832V7.79785ZM34.3029 15.4473H32.4093V13H26.4074V15.4404H24.466L24.3566 11.3525H25.1086C25.5142 11.0153 25.8263 10.5208 26.0451 9.86914C26.2684 9.21289 26.4188 8.40169 26.4963 7.43555L26.7834 3.04688H33.3048V11.3525H34.467L34.3029 15.4473ZM27.4601 11.3525H31.2541V4.70801H28.7316L28.5607 7.32617C28.424 9.08073 28.0571 10.4229 27.4601 11.3525ZM44.0745 13H42.0168V4.70801H38.0315V13H35.9807V3.04688H44.0745V13ZM52.2669 3.04688H54.3245V13H52.2669V6.38965L48.2816 13H46.2308V3.04688H48.2816V9.6709L52.2669 3.04688ZM58.5658 3.04688V11.3525H61.3275V3.04688H63.3852V11.3525H66.1195V3.04688H68.1703V13H56.5082V3.04688H58.5658ZM76.3354 3.04688H78.393V13H76.3354V6.38965L72.3501 13H70.2993V3.04688H72.3501V9.6709L76.3354 3.04688ZM87.8775 4.70801H84.8287V13H82.7779V4.70801H79.7701V3.04688H87.8775V4.70801ZM95.4616 8.68652H91.5241V11.3525H96.1452V13H89.4733V3.04688H96.1315V4.70801H91.5241V7.08008H95.4616V8.68652ZM105.582 9.68457C105.504 10.7555 105.108 11.5986 104.392 12.2139C103.681 12.8291 102.743 13.1367 101.576 13.1367C100.3 13.1367 99.295 12.7083 98.5612 11.8516C97.8321 10.9902 97.4675 9.8099 97.4675 8.31055V7.70215C97.4675 6.74512 97.6361 5.90202 97.9734 5.17285C98.3106 4.44368 98.7914 3.88542 99.4157 3.49805C100.045 3.10612 100.774 2.91016 101.603 2.91016C102.752 2.91016 103.677 3.21777 104.379 3.83301C105.08 4.44824 105.486 5.31185 105.595 6.42383H103.545C103.495 5.78125 103.315 5.31641 103.005 5.0293C102.699 4.73763 102.232 4.5918 101.603 4.5918C100.92 4.5918 100.407 4.83789 100.065 5.33008C99.7279 5.81771 99.5547 6.5765 99.5456 7.60645V8.3584C99.5456 9.43392 99.7074 10.2201 100.031 10.7168C100.359 11.2135 100.874 11.4619 101.576 11.4619C102.209 11.4619 102.681 11.3184 102.991 11.0312C103.305 10.7396 103.485 10.2907 103.531 9.68457H105.582ZM109.399 6.63574H110.999C112.17 6.63574 113.097 6.92057 113.781 7.49023C114.469 8.05534 114.813 8.81868 114.813 9.78027C114.813 10.7464 114.471 11.5234 113.788 12.1113C113.109 12.6947 112.204 12.9909 111.074 13H107.335V3.04688H109.399V6.63574ZM109.399 8.29004V11.3525H111.033C111.557 11.3525 111.974 11.209 112.284 10.9219C112.598 10.6348 112.756 10.2497 112.756 9.7666C112.756 9.31543 112.605 8.95996 112.304 8.7002C112.008 8.43587 111.6 8.29915 111.081 8.29004H109.399ZM128.539 13H126.488V8.73438H122.489V13H120.438V3.04688H122.489V7.08008H126.488V3.04688H128.539V13ZM136.499 10.9492H132.903L132.22 13H130.039L133.744 3.04688H135.645L139.37 13H137.189L136.499 10.9492ZM133.457 9.28809H135.945L134.694 5.5625L133.457 9.28809ZM146.677 9.49316V13H144.626V3.04688H148.509C149.256 3.04688 149.913 3.18359 150.478 3.45703C151.047 3.73047 151.485 4.12012 151.79 4.62598C152.096 5.12728 152.248 5.69922 152.248 6.3418C152.248 7.31706 151.913 8.08724 151.243 8.65234C150.578 9.21289 149.655 9.49316 148.475 9.49316H146.677ZM146.677 7.83203H148.509C149.051 7.83203 149.464 7.70443 149.746 7.44922C150.033 7.19401 150.177 6.82943 150.177 6.35547C150.177 5.86784 150.033 5.47363 149.746 5.17285C149.459 4.87207 149.063 4.71712 148.557 4.70801H146.677V7.83203ZM158.486 10.9492H154.89L154.206 13H152.026L155.731 3.04688H157.631L161.357 13H159.176L158.486 10.9492ZM155.444 9.28809H157.932L156.681 5.5625L155.444 9.28809ZM170.369 9.68457C170.292 10.7555 169.896 11.5986 169.18 12.2139C168.469 12.8291 167.53 13.1367 166.364 13.1367C165.088 13.1367 164.083 12.7083 163.349 11.8516C162.62 10.9902 162.255 9.8099 162.255 8.31055V7.70215C162.255 6.74512 162.424 5.90202 162.761 5.17285C163.098 4.44368 163.579 3.88542 164.203 3.49805C164.832 3.10612 165.562 2.91016 166.391 2.91016C167.539 2.91016 168.465 3.21777 169.166 3.83301C169.868 4.44824 170.274 5.31185 170.383 6.42383H168.332C168.282 5.78125 168.102 5.31641 167.792 5.0293C167.487 4.73763 167.02 4.5918 166.391 4.5918C165.707 4.5918 165.195 4.83789 164.853 5.33008C164.516 5.81771 164.342 6.5765 164.333 7.60645V8.3584C164.333 9.43392 164.495 10.2201 164.819 10.7168C165.147 11.2135 165.662 11.4619 166.364 11.4619C166.997 11.4619 167.469 11.3184 167.779 11.0312C168.093 10.7396 168.273 10.2907 168.319 9.68457H170.369ZM179.95 9.68457C179.872 10.7555 179.476 11.5986 178.76 12.2139C178.049 12.8291 177.11 13.1367 175.944 13.1367C174.668 13.1367 173.663 12.7083 172.929 11.8516C172.2 10.9902 171.835 9.8099 171.835 8.31055V7.70215C171.835 6.74512 172.004 5.90202 172.341 5.17285C172.678 4.44368 173.159 3.88542 173.784 3.49805C174.413 3.10612 175.142 2.91016 175.971 2.91016C177.12 2.91016 178.045 3.21777 178.747 3.83301C179.448 4.44824 179.854 5.31185 179.963 6.42383H177.913C177.862 5.78125 177.682 5.31641 177.372 5.0293C177.067 4.73763 176.6 4.5918 175.971 4.5918C175.288 4.5918 174.775 4.83789 174.433 5.33008C174.096 5.81771 173.923 6.5765 173.914 7.60645V8.3584C173.914 9.43392 174.075 10.2201 174.399 10.7168C174.727 11.2135 175.242 11.4619 175.944 11.4619C176.577 11.4619 177.049 11.3184 177.359 11.0312C177.673 10.7396 177.853 10.2907 177.899 9.68457H179.95ZM183.801 6.63574H185.401C186.572 6.63574 187.5 6.92057 188.183 7.49023C188.871 8.05534 189.215 8.81868 189.215 9.78027C189.215 10.7464 188.874 11.5234 188.19 12.1113C187.511 12.6947 186.606 12.9909 185.476 13H181.737V3.04688H183.801V6.63574ZM192.121 13H190.07V3.04688H192.121V13ZM183.801 8.29004V11.3525H185.435C185.959 11.3525 186.376 11.209 186.686 10.9219C187.001 10.6348 187.158 10.2497 187.158 9.7666C187.158 9.31543 187.007 8.95996 186.707 8.7002C186.41 8.43587 186.002 8.29915 185.483 8.29004H183.801ZM202.562 3.04688V13H200.504V4.70801H197.852L197.688 8.22168C197.62 9.40658 197.469 10.3408 197.237 11.0244C197.004 11.7035 196.665 12.2025 196.218 12.5215C195.772 12.8359 195.161 12.9954 194.386 13H193.853V11.3525L194.195 11.3184C194.71 11.25 195.077 10.9538 195.296 10.4297C195.519 9.90104 195.66 8.96224 195.719 7.61328L195.89 3.04688H202.562ZM208.02 8.93262H206.838V13H204.787V3.04688H206.838V7.03223H207.774L210.208 3.04688H212.71L209.64 7.75684L213.031 13H210.584L208.02 8.93262ZM217.976 7.75L219.788 3.04688H222.003L218.523 11.2568L218.243 11.7969C217.728 12.6947 216.94 13.1436 215.878 13.1436L215.16 13.1162L215.139 11.4688C215.249 11.487 215.427 11.4961 215.673 11.4961C215.96 11.4961 216.19 11.446 216.363 11.3457C216.541 11.2454 216.689 11.0609 216.807 10.792L217.06 10.1426L213.567 3.04688H215.775L217.976 7.75Z" fill="white"/>
<g filter="url(#filter1_d)">
<rect x="4.5" y="36.5" width="357" height="49" rx="3.5" stroke="white" stroke-opacity="0.3"/>
</g>
<path d="M27.75 60.7422H22.8203V64.7734H28.5469V66H21.3203V54.625H28.4688V55.8594H22.8203V59.5156H27.75V60.7422ZM33.6753 61.7578H29.8628V60.5781H33.6753V61.7578ZM36.9288 57.5469L36.9678 58.4844C37.5876 57.7552 38.4235 57.3906 39.4756 57.3906C40.6579 57.3906 41.4626 57.8438 41.8897 58.75C42.1709 58.3438 42.5355 58.0156 42.9834 57.7656C43.4366 57.5156 43.9704 57.3906 44.585 57.3906C46.4392 57.3906 47.3819 58.3724 47.4131 60.3359V66H45.9678V60.4219C45.9678 59.8177 45.8298 59.3672 45.5538 59.0703C45.2777 58.7682 44.8142 58.6172 44.1631 58.6172C43.6267 58.6172 43.1814 58.7786 42.8272 59.1016C42.473 59.4193 42.2673 59.849 42.21 60.3906V66H40.7569V60.4609C40.7569 59.2318 40.1553 58.6172 38.9522 58.6172C38.0043 58.6172 37.3558 59.0208 37.0069 59.8281V66H35.5616V57.5469H36.9288ZM55.2994 66C55.216 65.8333 55.1483 65.5365 55.0963 65.1094C54.4244 65.8073 53.6223 66.1562 52.69 66.1562C51.8567 66.1562 51.1718 65.9219 50.6353 65.4531C50.1041 64.9792 49.8384 64.3802 49.8384 63.6562C49.8384 62.776 50.1718 62.0938 50.8384 61.6094C51.5103 61.1198 52.453 60.875 53.6666 60.875H55.0728V60.2109C55.0728 59.7057 54.9218 59.3047 54.6197 59.0078C54.3176 58.7057 53.8723 58.5547 53.2838 58.5547C52.7681 58.5547 52.3358 58.6849 51.9869 58.9453C51.6379 59.2057 51.4634 59.5208 51.4634 59.8906H50.0103C50.0103 59.4688 50.1588 59.0625 50.4556 58.6719C50.7577 58.276 51.164 57.9635 51.6744 57.7344C52.19 57.5052 52.7551 57.3906 53.3697 57.3906C54.3436 57.3906 55.1067 57.6354 55.6588 58.125C56.2108 58.6094 56.4973 59.2786 56.5181 60.1328V64.0234C56.5181 64.7995 56.6171 65.4167 56.815 65.875V66H55.2994ZM52.9009 64.8984C53.3541 64.8984 53.7838 64.7812 54.19 64.5469C54.5963 64.3125 54.8905 64.0078 55.0728 63.6328V61.8984H53.94C52.1692 61.8984 51.2838 62.4167 51.2838 63.4531C51.2838 63.9062 51.4348 64.2604 51.7369 64.5156C52.039 64.7708 52.427 64.8984 52.9009 64.8984ZM60.8341 66H59.3887V57.5469H60.8341V66ZM59.2716 55.3047C59.2716 55.0703 59.3419 54.8724 59.4825 54.7109C59.6283 54.5495 59.8419 54.4688 60.1231 54.4688C60.4044 54.4688 60.6179 54.5495 60.7637 54.7109C60.9096 54.8724 60.9825 55.0703 60.9825 55.3047C60.9825 55.5391 60.9096 55.7344 60.7637 55.8906C60.6179 56.0469 60.4044 56.125 60.1231 56.125C59.8419 56.125 59.6283 56.0469 59.4825 55.8906C59.3419 55.7344 59.2716 55.5391 59.2716 55.3047ZM65.2047 66H63.7594V54H65.2047V66Z" fill="white" fill-opacity="0.6"/>
<defs>
<filter id="filter0_d" x="370" y="36" width="208" height="58" filterUnits="userSpaceOnUse" color-interpolation-filters="sRGB">
<feFlood flood-opacity="0" result="BackgroundImageFix"/>
<feColorMatrix in="SourceAlpha" type="matrix" values="0 0 0 0 0 0 0 0 0 0 0 0 0 0 0 0 0 0 127 0"/>
<feOffset dy="4"/>
<feGaussianBlur stdDeviation="2"/>
<feColorMatrix type="matrix" values="0 0 0 0 0 0 0 0 0 0 0 0 0 0 0 0 0 0 0.15 0"/>
<feBlend mode="normal" in2="BackgroundImageFix" result="effect1_dropShadow"/>
<feBlend mode="normal" in="SourceGraphic" in2="effect1_dropShadow" result="shape"/>
</filter>
<filter id="filter1_d" x="0" y="36" width="366" height="58" filterUnits="userSpaceOnUse" color-interpolation-filters="sRGB">
<feFlood flood-opacity="0" result="BackgroundImageFix"/>
<feColorMatrix in="SourceAlpha" type="matrix" values="0 0 0 0 0 0 0 0 0 0 0 0 0 0 0 0 0 0 127 0"/>
<feOffset dy="4"/>
<feGaussianBlur stdDeviation="2"/>
<feColorMatrix type="matrix" values="0 0 0 0 0 0 0 0 0 0 0 0 0 0 0 0 0 0 0.15 0"/>
<feBlend mode="normal" in2="BackgroundImageFix" result="effect1_dropShadow"/>
<feBlend mode="normal" in="SourceGraphic" in2="effect1_dropShadow" result="shape"/>
</filter>
</defs>
</svg>
